<svg xmlns="http://www.w3.org/2000/svg" width="171.027" height="148.075" viewBox="0 0 171.027 148.075">
  <g id="ManPowerFooterDesign" transform="translate(-46.487 -3141.759)">
    <g id="Group_11" data-name="Group 11" transform="matrix(0.999, -0.035, 0.035, 0.999, 41.322, 3141.939)">
      <path id="Path_36" data-name="Path 36" d="M128.288,0H42.811L0,74.037l42.811,74.037h85.477l42.739-74.037Z" transform="translate(5.168 0) rotate(2)" fill="#d2a12a"/>
      <g id="muscle-svgrepo-com" transform="translate(44.285 25.736)">
        <path id="Path_29" data-name="Path 29" d="M42.115,73.688A25.1,25.1,0,1,1,90.156,88.213a4.307,4.307,0,0,1-4.116,2.9H21.183A17.422,17.422,0,0,1,4.1,70.271L17.354,4H43.487L52.2,19.244,33.535,32.594l-5.292-6.816" transform="translate(-3.756 -4)" fill="none" stroke="#363795" stroke-linecap="round" stroke-linejoin="round" stroke-miterlimit="2" stroke-width="8"/>
        <path id="Path_30" data-name="Path 30" d="M17.44,17.13l9.931,36.738" transform="translate(12.361 11.464)" fill="none" stroke="#363795" stroke-linecap="round" stroke-linejoin="round" stroke-miterlimit="2" stroke-width="8"/>
      </g>
    </g>
  </g>
</svg>
