<svg xmlns="http://www.w3.org/2000/svg" width="316.892" height="316.426" viewBox="0 0 316.892 316.426">
  <g id="ServicesAllForOneDesign" transform="translate(4047.98 -2613.28)">
    <g id="Group_10" data-name="Group 10" transform="translate(-4047.98 2775.752)">
      <path id="Path_35" data-name="Path 35" d="M128.288,0H42.811L0,74.037l42.811,74.037h85.477l42.739-74.037Z" transform="translate(5.168 0) rotate(2)" fill="#d2a12a"/>
      <g id="money-send-svgrepo-com" transform="translate(49.527 39.394)">
        <path id="Path_24" data-name="Path 24" d="M9.5,29.363a6.789,6.789,0,0,0,6.627,6.945h7.46a5.909,5.909,0,0,0,5.754-6.072c0-3.611-1.587-4.921-3.929-5.754L13.468,20.316c-2.341-.833-3.929-2.1-3.929-5.754A5.934,5.934,0,0,1,15.294,8.49h7.46a6.789,6.789,0,0,1,6.627,6.945" transform="translate(20.262 17.264)" fill="none" stroke="#363795" stroke-linecap="round" stroke-linejoin="round" stroke-width="8"/>
        <path id="Path_25" data-name="Path 25" d="M12,7.5V43.215" transform="translate(27.683 14.326)" fill="none" stroke="#363795" stroke-linecap="round" stroke-linejoin="round" stroke-width="8"/>
        <path id="Path_26" data-name="Path 26" d="M81.367,41.683A39.683,39.683,0,1,1,41.683,2" transform="translate(-2 -2)" fill="none" stroke="#363795" stroke-linecap="round" stroke-linejoin="round" stroke-width="8"/>
        <path id="Path_27" data-name="Path 27" d="M33.873,17.873V2H18" transform="translate(45.493 -2)" fill="none" stroke="#363795" stroke-linecap="round" stroke-linejoin="round" stroke-width="8"/>
        <path id="Path_28" data-name="Path 28" d="M17,21.842,36.842,2" transform="translate(42.525 -2)" fill="none" stroke="#363795" stroke-linecap="round" stroke-linejoin="round" stroke-width="8"/>
      </g>
    </g>
    <g id="Group_11" data-name="Group 11" transform="translate(-4044.163 2613.28)">
      <path id="Path_36" data-name="Path 36" d="M128.288,0H42.811L0,74.037l42.811,74.037h85.477l42.739-74.037Z" transform="translate(5.168 0) rotate(2)" fill="#d2a12a"/>
      <g id="muscle-svgrepo-com" transform="translate(44.285 25.736)">
        <path id="Path_29" data-name="Path 29" d="M42.115,73.688A25.1,25.1,0,1,1,90.156,88.213a4.307,4.307,0,0,1-4.116,2.9H21.183A17.422,17.422,0,0,1,4.1,70.271L17.354,4H43.487L52.2,19.244,33.535,32.594l-5.292-6.816" transform="translate(-3.756 -4)" fill="none" stroke="#363795" stroke-linecap="round" stroke-linejoin="round" stroke-miterlimit="2" stroke-width="8"/>
        <path id="Path_30" data-name="Path 30" d="M17.44,17.13l9.931,36.738" transform="translate(12.361 11.464)" fill="none" stroke="#363795" stroke-linecap="round" stroke-linejoin="round" stroke-miterlimit="2" stroke-width="8"/>
      </g>
    </g>
    <g id="Group_12" data-name="Group 12" transform="translate(-3907.178 2698.775)">
      <path id="Path_37" data-name="Path 37" d="M128.288,0H42.811L0,74.037l42.811,74.037h85.477l42.739-74.037Z" transform="translate(5.168 0) rotate(2)" fill="#d2a12a"/>
      <path id="Path_38" data-name="Path 38" d="M2189.837,1934.15a9.84,9.84,0,0,1,.588-3.421,4.4,4.4,0,0,1,2.753-2.031,4.791,4.791,0,0,1,1.978.16,4.241,4.241,0,0,1,1.509.957l10.771,12.472a6.986,6.986,0,0,0,3.605,2.471,8.256,8.256,0,0,0,4.61-.91l9.642-9.64a6.832,6.832,0,0,0,1.474-4.141c-.177-2.091-2.183-4.221-2.183-4.221l-12.047-10.2a3.962,3.962,0,0,1-2.1-4.133,4.275,4.275,0,0,1,1.538-2.58,6.877,6.877,0,0,1,3.825-.879s6.825.116,12.138,2.829a29.437,29.437,0,0,1,9.114,8.024,30.142,30.142,0,0,1,4.747,11.166c.921,5.846-1.062,12.219-1.062,12.219a5.749,5.749,0,0,0,.417,1.978,3.414,3.414,0,0,0,1.143,1.282l33.589,26.077a24.6,24.6,0,0,1,3.91,6.766,15.148,15.148,0,0,1,.451,6.709,16.616,16.616,0,0,1-6.9,10.9,21.19,21.19,0,0,1-4.967,2.129,16.292,16.292,0,0,1-7.548,0,20.939,20.939,0,0,1-7.052-4.113l-26.3-33.476a3.655,3.655,0,0,0-1.39-1.338,3.613,3.613,0,0,0-1.786-.192s-7.775,2.536-14.753.672-13.159-8.128-13.159-8.128a24.861,24.861,0,0,1-2.552-3.456,33.521,33.521,0,0,1-2.394-4.833A26.525,26.525,0,0,1,2189.837,1934.15Z" transform="translate(-2146.771 -1875.08)" fill="none" stroke="#363795" stroke-width="8"/>
    </g>
  </g>
</svg>
