<svg id="WhatsAppLinkFooterDesign" xmlns="http://www.w3.org/2000/svg" width="115.682" height="101.139" viewBox="0 0 115.682 101.139">
  <path id="Path_33" data-name="Path 33" d="M84.279,0H28.124L0,48.639,28.124,97.277H84.279l28.077-48.639Z" transform="translate(3.395 0) rotate(2)" fill="#d2a12a"/>
  <path id="whatsapp-svgrepo-com" d="M42.052,16a26.061,26.061,0,0,0-23.2,37.924L16.053,65.7a1.955,1.955,0,0,0,2.353,2.353l11.774-2.8A26.054,26.054,0,1,0,42.052,16ZM19.908,42.052a22.132,22.132,0,1,1,11.48,19.412,1.955,1.955,0,0,0-1.4-.189l-9.4,2.239,2.239-9.4a1.954,1.954,0,0,0-.189-1.4A22.034,22.034,0,0,1,19.908,42.052ZM34.9,49.209a24.8,24.8,0,0,0,14.9,7.138,6,6,0,0,0,6.586-6.03V48.039a6.173,6.173,0,0,0-4.4-5.913l-.181-.054-.186-.036L49,41.52a6.174,6.174,0,0,0-4.966.836,13.724,13.724,0,0,1-2.288-2.288,6.174,6.174,0,0,0,.837-4.967l-.515-2.612-.036-.186-.054-.181a6.173,6.173,0,0,0-5.912-4.4H33.787a6,6,0,0,0-6.03,6.586,24.8,24.8,0,0,0,7.138,14.9Zm10.959-3.315a2.265,2.265,0,0,1,2.252-.568l2.753.542a2.266,2.266,0,0,1,1.614,2.17v2.278a2.089,2.089,0,0,1-2.261,2.144,20.81,20.81,0,0,1-8.756-3.006,21.064,21.064,0,0,1-6.807-6.807,20.815,20.815,0,0,1-3.006-8.756,2.088,2.088,0,0,1,2.144-2.261h2.279a2.265,2.265,0,0,1,2.169,1.614L38.777,36a2.265,2.265,0,0,1-.568,2.253l-.365.365a1.933,1.933,0,0,0-.5.869,1.744,1.744,0,0,0,.2,1.375,17.632,17.632,0,0,0,5.706,5.706,1.745,1.745,0,0,0,1.375.2,1.934,1.934,0,0,0,.869-.5l.365-.365Z" transform="translate(15.789 8.517)" fill="#363795" fill-rule="evenodd"/>
</svg>
